<svg width="14" height="14" viewBox="0 0 14 14" fill="none" xmlns="http://www.w3.org/2000/svg">
<path d="M14 7C14 10.8669 10.8387 14 7 14C3.13306 14 0 10.8669 0 7C0 3.16129 3.13306 0 7 0C10.8387 0 14 3.16129 14 7ZM6.18145 10.7258L11.375 5.53226C11.5444 5.3629 11.5444 5.05242 11.375 4.88306L10.7258 4.2621C10.5565 4.06452 10.2742 4.06452 10.1048 4.2621L5.87097 8.49597L3.86694 6.52016C3.69758 6.32258 3.41532 6.32258 3.24597 6.52016L2.59677 7.14113C2.42742 7.31048 2.42742 7.62097 2.59677 7.79032L5.53226 10.7258C5.70161 10.8952 6.0121 10.8952 6.18145 10.7258Z" fill="#0F9C28"/>
</svg>
