<svg width="15" height="15" viewBox="0 0 15 15" fill="none" xmlns="http://www.w3.org/2000/svg">
<path d="M13.3929 15H1.60714C0.703125 15 0 14.2969 0 13.3929V1.60714C0 0.736607 0.703125 0 1.60714 0H13.3929C14.2634 0 15 0.736607 15 1.60714V13.3929C15 14.2969 14.2634 15 13.3929 15ZM6.52902 11.7187L12.6897 5.55804C12.8906 5.35714 12.8906 5.02232 12.6897 4.82143L11.9196 4.05134C11.7188 3.85045 11.3839 3.85045 11.183 4.05134L6.16071 9.07366L3.78348 6.72991C3.58259 6.52902 3.24777 6.52902 3.04688 6.72991L2.27679 7.5C2.07589 7.70089 2.07589 8.03571 2.27679 8.23661L5.75893 11.7187C5.95982 11.9531 6.32812 11.9531 6.52902 11.7187Z" fill="#4246C9"/>
</svg>
