<svg width="11" height="19" viewBox="0 0 11 19" fill="none" xmlns="http://www.w3.org/2000/svg">
<g clip-path="url(#clip0_1_87)">
<path d="M10.8545 7.467C10.8545 7.64433 10.7912 7.80267 10.6645 7.942L5.9145 12.692C5.77517 12.8313 5.61683 12.901 5.4395 12.901C5.26217 12.901 5.10383 12.8313 4.9645 12.692L0.214501 7.942C0.0751675 7.80267 0.00550079 7.64433 0.00550079 7.467C0.00550079 7.28967 0.0751675 7.13133 0.214501 6.992C0.353834 6.85267 0.512167 6.783 0.689501 6.783H10.1895C10.3668 6.783 10.5252 6.85267 10.6645 6.992C10.8038 7.13133 10.8672 7.28967 10.8545 7.467Z" fill="black"/>
</g>
<defs>
<clipPath id="clip0_1_87">
<rect width="10.86" height="19" fill="white" transform="matrix(1 0 0 -1 0 19)"/>
</clipPath>
</defs>
</svg>
