<svg width="23" height="18" viewBox="0 0 23 18" fill="none" xmlns="http://www.w3.org/2000/svg">
<path d="M1.26733e-05 15.9722V8.94444H23V15.9722C23 17.0503 22.1215 17.8889 21.0833 17.8889H1.91668C0.838554 17.8889 1.26733e-05 17.0503 1.26733e-05 15.9722ZM7.66668 13.2569V14.8542C7.66668 15.1337 7.86633 15.3333 8.14585 15.3333H13.5764C13.816 15.3333 14.0556 15.1337 14.0556 14.8542V13.2569C14.0556 13.0174 13.816 12.7778 13.5764 12.7778H8.14585C7.86633 12.7778 7.66668 13.0174 7.66668 13.2569ZM2.55557 13.2569V14.8542C2.55557 15.1337 2.75522 15.3333 3.03473 15.3333H5.90973C6.14932 15.3333 6.3889 15.1337 6.3889 14.8542V13.2569C6.3889 13.0174 6.14932 12.7778 5.90973 12.7778H3.03473C2.75522 12.7778 2.55557 13.0174 2.55557 13.2569ZM23 1.91667V3.83333H1.26733e-05V1.91667C1.26733e-05 0.878472 0.838554 0 1.91668 0H21.0833C22.1215 0 23 0.878472 23 1.91667Z" fill="#FBFFFC"/>
<a>
<rect fill="black" fill-opacity="0" x="0.167188" y="-1.5" width="22.5" height="23"/>
</a>
</svg>
